<?xml version="1.0" standalone="no"?>
<!DOCTYPE svg PUBLIC "-//W3C//DTD SVG 1.1//EN" "http://www.w3.org/Graphics/SVG/1.1/DTD/svg11.dtd" >
<svg xmlns="http://www.w3.org/2000/svg">
<metadata>
Created by FontPrep 20130207 at Sun Aug 21 19:43:04 2016
 By Devin Halladay
Copyright (C) 2004 Hoefler &#38; Frere-Jones Typography, Inc. www.typography.com
</metadata>
<defs>
<font id="31db9e5e60b73131e96699f50755b64c" horiz-adv-x='1024' >
  <font-face 
    font-family="Whitney-BookItalic"
    font-weight="500"
    font-style="italic"
    font-stretch="normal"
    units-per-em="2048"
    panose-1="0 0 0 0 0 0 0 0 0 0"
    ascent="1638"
    descent="-410"
    x-height="969"
    cap-height="1413"
    bbox="-274 -410 2075 1915"
    underline-thickness="40"
    underline-position="-252"
    slope="-12"
    unicode-range="U+0020-FB02"
  />
<missing-glyph horiz-adv-x="1024" 
 />
    <glyph glyph-name=".notdef" horiz-adv-x="1024" 
 />
    <glyph glyph-name=".null" horiz-adv-x="0" 
 />
    <glyph glyph-name="nonmarkingreturn" horiz-adv-x="681" 
 />
    <glyph glyph-name="space" unicode=" " horiz-adv-x="442" 
 />
    <glyph glyph-name="exclam" unicode="!" horiz-adv-x="536" 
d="M303 201l-33 -201h-157l30 201h160zM498 1413l-195 -1003l-96 -21l127 1024h164z" />
    <glyph glyph-name="quotedbl" unicode="&#x22;" horiz-adv-x="782" 
d="M444 1384l-104 -378l-74 18l15 360h163zM788 1384l-104 -378l-74 18l15 360h163z" />
    <glyph glyph-name="numbersign" unicode="#" horiz-adv-x="1308" 
d="M911 901h-379l-83 -418h378zM1264 901h-244l-84 -418h244l20 -116h-287l-71 -371h-109l74 371h-381l-76 -381l-104 22l71 359h-221v116h242l84 418h-244l-20 117h286l72 371h113l-74 -371h379l76 381l102 -23l-72 -358h224v-117z" />
    <glyph glyph-name="dollar" unicode="$" horiz-adv-x="1042" 
d="M631 1288q-139 0 -217 -68t-78 -178q0 -72 47 -126t160 -113l151 481q-45 4 -63 4zM475 96q145 0 239 78q93 78 93 205q0 78 -48 135t-167 121l-43 -135q-41 -133 -82 -267l-43 -135q16 -2 51 -2zM932 389q0 -184 -131 -293t-334 -108q-25 0 -78 4l-18 -62
q-18 -61 -39 -123l-19 -59l-98 23l74 235q-139 31 -260 98l28 127q135 -84 269 -116l178 565q-150 78 -220 156t-69 198q0 160 116 260t306 101q31 0 88 -4l49 155l100 -24l-47 -148q98 -20 195 -67l-31 -125q-78 51 -200 84l-160 -506q165 -86 233 -169t68 -202z" />
    <glyph glyph-name="percent" unicode="%" horiz-adv-x="1708" 
d="M1501 428q0 235 -143 238q-92 0 -154 -110t-61 -236q0 -126 40 -184q40 -56 103 -56q92 0 154 110q61 112 61 238zM1292 -16q-266 0 -266 338q0 164 97 302t229 138t198 -88q68 -88 68 -252t-97 -301t-229 -137zM487 1305q-92 0 -152 -111q-61 -112 -61 -238t39 -182
t105 -55q92 -1 153 109t61 236t-40 184q-42 57 -105 57zM1491 1374l-1098 -1388l-108 24l1097 1389zM482 1401q132 1 200 -87t68 -252t-98 -302q-98 -137 -228 -137q-131 0 -199 87q-67 88 -67 252t96 302t228 137z" />
    <glyph glyph-name="ampersand" unicode="&#x26;" horiz-adv-x="1312" 
d="M205 328q-1 -110 67 -174t183 -64q211 0 389 227l-287 385q-352 -121 -352 -374zM440 -27q-166 1 -270 95t-104 251q0 317 421 476q-115 161 -115 307t103 242q102 96 264 96t310 -82l-35 -129q-150 92 -266 92t-178 -59t-62 -161t115 -255l301 -408q96 162 161 385
l123 -28q-92 -277 -211 -457l236 -318l-143 -32l-177 235q-211 -250 -473 -250z" />
    <glyph glyph-name="quotesingle" unicode="'" horiz-adv-x="438" 
d="M444 1384l-104 -378l-74 18l15 360h163z" />
    <glyph glyph-name="parenleft" unicode="(" horiz-adv-x="804" 
d="M293 498q0 -182 71 -333t234 -333l-127 -29q-162 172 -241 328t-78 354q0 621 667 1004l-8 -133q-518 -319 -518 -858z" />
    <glyph glyph-name="parenright" unicode=")" horiz-adv-x="804" 
d="M702 799q0 -623 -665 -1006l8 135q516 322 516 856q0 184 -71 334t-234 334l127 29q163 -173 241 -329t78 -353z" />
    <glyph glyph-name="asterisk" unicode="*" horiz-adv-x="821" 
d="M813 1180l-240 -105l134 -229l-37 -25l-172 199l-176 -199l-35 25l131 229l-236 105l13 41l254 -54l24 258h47l25 -258l254 54z" />
    <glyph glyph-name="plus" unicode="+" horiz-adv-x="1167" 
d="M1075 637h-407l-64 -414h-119l66 414h-408l17 111h407l66 413h117l-64 -413h406z" />
    <glyph glyph-name="comma" unicode="," horiz-adv-x="438" 
d="M291 201l-271 -473l-69 18l176 455h164z" />
    <glyph glyph-name="hyphen" unicode="-" horiz-adv-x="737" 
d="M639 647l-18 -135h-496l16 135h498z" />
    <glyph glyph-name="period" unicode="." horiz-adv-x="438" 
d="M254 201l-33 -201h-160l33 201h160z" />
    <glyph glyph-name="slash" unicode="/" horiz-adv-x="1048" 
d="M1151 1401l-1219 -1655l-120 27l1216 1654z" />
    <glyph glyph-name="zero" unicode="0" horiz-adv-x="1171" 
d="M971 874q0 201 -73 311t-200 109q-182 0 -306 -222t-124 -562q0 -200 73 -310t200 -110q182 0 306 222t124 562zM1108 881q0 -387 -164 -647t-412 -261q-188 1 -294 145t-107 386q0 387 165 647t413 260q187 0 293 -145t106 -385z" />
    <glyph glyph-name="one" unicode="1" horiz-adv-x="692" 
d="M631 1391l-219 -1391h-131l198 1245l-307 -115v109l354 152h105z" />
    <glyph glyph-name="two" unicode="2" horiz-adv-x="1044" 
d="M999 1094q0 -136 -62 -239t-224 -257l-500 -479h641v-119h-838l15 100l608 584q119 115 171 203t52 186q0 97 -61 157t-172 60q-168 0 -379 -145v131q195 135 377 135t277 -90q95 -91 95 -227z" />
    <glyph glyph-name="three" unicode="3" horiz-adv-x="1005" 
d="M586 1411q178 0 280 -85q102 -84 101 -232q1 -148 -93 -238t-237 -129q246 -90 246 -324q0 -193 -134 -311t-339 -119q-205 0 -394 115l41 123q184 -121 344 -121t253 83q94 83 94 219t-92 208t-259 72h-45v119h60q188 1 303 77t114 213q0 100 -66 156q-67 55 -179 55
q-174 0 -357 -123v127q181 115 359 115z" />
    <glyph glyph-name="four" unicode="4" horiz-adv-x="1163" 
d="M741 440l129 801l-647 -801h518zM1096 440l-19 -110h-229l-53 -330h-123l55 330h-670l15 92l784 967h162l-154 -949h232z" />
    <glyph glyph-name="five" unicode="5" horiz-adv-x="1011" 
d="M989 1270h-551l-96 -416q555 -74 555 -442q0 -199 -136 -319t-335 -120t-393 105l41 121q186 -107 346 -107t251 84t91 230t-132 232q-132 85 -429 112l143 634h645v-114z" />
    <glyph glyph-name="six" unicode="6" horiz-adv-x="1099" 
d="M250 469q0 -181 75 -281t213 -100t238 108q98 108 98 248q0 273 -243 273q-178 0 -375 -137q-6 -55 -6 -111zM283 709q193 123 365 123t267 -95q95 -93 95 -283t-142 -335t-338 -145q-194 0 -303 128q-109 129 -108 359q0 356 227 616t615 338v-123q-263 -54 -439 -208
t-239 -375z" />
    <glyph glyph-name="seven" unicode="7" horiz-adv-x="1036" 
d="M227 1268v116h848l-16 -96l-762 -1302l-121 30l733 1252h-682z" />
    <glyph glyph-name="eight" unicode="8" horiz-adv-x="1095" 
d="M648 1411q186 0 290 -91t104 -233q0 -238 -292 -372q238 -131 237 -338q0 -174 -132 -288t-338 -114q-205 -1 -323 101t-118 256q0 264 346 416q-188 113 -189 294q0 156 115 262t300 107zM209 342q0 -112 89 -184t228 -72t232 80q92 80 92 190t-66 180t-245 152
q-330 -125 -330 -346zM911 1079q0 100 -70 160q-71 59 -196 59t-202 -72t-77 -164t61 -156q60 -64 210 -136q274 117 274 309z" />
    <glyph glyph-name="nine" unicode="9" horiz-adv-x="1099" 
d="M913 915q0 180 -74 281q-75 100 -214 100t-237 -111q-97 -113 -97 -255q0 -280 244 -279q171 0 370 135q8 55 8 129zM156 920q0 192 140 342t336 150t304 -130q109 -129 108 -358q0 -360 -228 -618t-617 -337v123q259 50 433 198t242 363q-180 -117 -356 -117t-269 96
t-93 288z" />
    <glyph glyph-name="colon" unicode=":" horiz-adv-x="456" 
d="M264 201l-31 -201h-159l30 201h160zM383 969l-31 -199h-159l30 199h160z" />
    <glyph glyph-name="semicolon" unicode=";" horiz-adv-x="456" 
d="M281 201l-271 -473l-69 18l176 455h164zM393 969l-31 -199h-159l30 199h160z" />
    <glyph glyph-name="less" unicode="&#x3c;" horiz-adv-x="1167" 
d="M967 182l-824 457l17 106l970 457l-22 -137l-817 -377l696 -379z" />
    <glyph glyph-name="equal" unicode="=" horiz-adv-x="1236" 
d="M1063 406h-922l21 122h921zM1135 856h-922l20 123h922z" />
    <glyph glyph-name="greater" unicode="&#x3e;" horiz-adv-x="1167" 
d="M268 1202l824 -457l-17 -106l-971 -457l23 137l817 377l-698 379z" />
    <glyph glyph-name="question" unicode="?" horiz-adv-x="940" 
d="M453 201l-33 -201h-156l31 201h158zM807 1100q1 108 -63 162t-171 55q-168 0 -368 -133v135q183 121 367 121t279 -85t95 -239t-101 -257t-335 -204l-59 -245l-95 -21l33 342l49 21q199 80 284 160t85 188z" />
    <glyph glyph-name="at" unicode="@" horiz-adv-x="1697" 
d="M680 96q-80 0 -141 71t-62 193q0 238 138 395t321 156q119 0 252 -57l-74 -432q-10 -72 -10 -124t35 -88q35 -38 106 -38q117 0 197 124t80 341q0 276 -157 429t-427 153q-320 0 -540 -237t-220 -605q0 -297 160 -451t422 -154t454 99l11 -59q-197 -98 -483 -98t-462 172
q-175 173 -176 489q0 387 242 646t598 259q303 0 475 -173t172 -468q0 -246 -103 -394t-259 -149q-104 0 -169 54t-75 147q-90 -105 -157 -153q-68 -48 -148 -48zM924 809q-128 0 -226 -122t-98 -303t119 -181q53 0 115 49q61 49 159 170l64 360q-66 27 -133 27z" />
    <glyph glyph-name="A" unicode="A" horiz-adv-x="1314" 
d="M920 578l-136 665l-346 -665h482zM1176 16l-136 -30l-96 471h-567l-236 -457h-145l754 1421h124z" />
    <glyph glyph-name="B" unicode="B" horiz-adv-x="1077" 
d="M829 415q0 133 -86 201t-241 68h-156l-92 -567h207q170 0 269 83t99 215zM520 799q150 -1 249 77t99 192q0 228 -254 228h-172l-77 -497h155zM621 1413q183 -1 285 -83t102 -222t-74 -229q-74 -90 -195 -136q229 -92 229 -302q0 -209 -142 -325q-144 -116 -380 -116h-346
l226 1413h295z" />
    <glyph glyph-name="C" unicode="C" horiz-adv-x="1187" 
d="M268 584q0 -228 108 -356t293 -128t357 123v-139q-172 -109 -390 -109t-364 160q-145 160 -145 440q0 347 200 605t496 258q224 0 369 -125l-35 -144q-154 143 -340 144q-237 0 -393 -216t-156 -513z" />
    <glyph glyph-name="D" unicode="D" horiz-adv-x="1318" 
d="M1112 823q0 225 -119 347t-350 122h-199l-186 -1171h211q268 0 446 174q197 192 197 528zM1257 831q0 -379 -235 -610q-221 -221 -565 -221h-357l226 1413h333q287 0 443 -155t155 -427z" />
    <glyph glyph-name="E" unicode="E" horiz-adv-x="966" 
d="M797 801v-123h-451l-88 -557h571l-18 -121h-711l226 1413h690l-21 -121h-551l-77 -491h430z" />
    <glyph glyph-name="F" unicode="F" horiz-adv-x="913" 
d="M776 778v-123h-434l-102 -655h-140l226 1413h663l-20 -121h-525l-82 -514h414z" />
    <glyph glyph-name="G" unicode="G" horiz-adv-x="1304" 
d="M658 -25q-230 0 -382 165t-151 433q0 225 91 423t256 320q164 122 382 122t369 -121l-35 -143q-152 139 -376 139t-384 -217t-160 -514q0 -224 115 -354t289 -130t301 76l71 444h-333v123h489l-104 -641q-208 -125 -438 -125z" />
    <glyph glyph-name="H" unicode="H" horiz-adv-x="1349" 
d="M1317 1413l-223 -1413h-138l107 678h-717l-106 -678h-140l226 1413h137l-96 -612h716l97 612h137z" />
    <glyph glyph-name="I" unicode="I" horiz-adv-x="524" 
d="M477 1413l-225 -1413h-137l225 1413h137z" />
    <glyph glyph-name="J" unicode="J" horiz-adv-x="718" 
d="M694 1413l-166 -1053q-59 -373 -385 -372q-49 0 -147 16v129q82 -23 145 -22q104 0 167 59q62 59 85 197l164 1046h137z" />
    <glyph glyph-name="K" unicode="K" horiz-adv-x="1165" 
d="M1233 1413l-731 -663l551 -732l-144 -32l-555 743l-114 -729h-140l226 1413h137l-103 -643l699 643h174z" />
    <glyph glyph-name="L" unicode="L" horiz-adv-x="894" 
d="M764 0h-664l226 1413h137l-207 -1292h508v-121z" />
    <glyph glyph-name="M" unicode="M" horiz-adv-x="1763" 
d="M1653 1413l-113 -1413h-133l98 1206l-655 -1214h-96l-273 1214l-282 -1206h-127l336 1413h167l261 -1218l645 1218h172z" />
    <glyph glyph-name="N" unicode="N" horiz-adv-x="1347" 
d="M1317 1413l-225 -1413h-84l-590 1200l-189 -1200h-129l226 1413h131l555 -1132l178 1132h127z" />
    <glyph glyph-name="O" unicode="O" horiz-adv-x="1413" 
d="M1208 823q0 225 -107 361q-108 135 -292 135q-227 0 -383 -211t-156 -518q0 -224 108 -360t290 -136q227 0 384 210q156 210 156 519zM1352 827q0 -356 -201 -605t-489 -249q-250 0 -393 171q-142 171 -142 442q0 356 201 605t487 249q253 0 395 -172t142 -441z" />
    <glyph glyph-name="P" unicode="P" horiz-adv-x="1030" 
d="M895 1034q0 258 -307 258h-144l-90 -573h162q182 0 281 88q98 88 98 227zM590 1413q442 -1 442 -379q0 -190 -145 -314t-393 -124h-160l-94 -596h-140l226 1413h264z" />
    <glyph glyph-name="Q" unicode="Q" horiz-adv-x="1413" 
d="M1208 823q0 225 -107 361q-108 135 -292 135q-227 0 -383 -211t-156 -518q0 -226 108 -362t290 -136q227 0 384 211q156 211 156 520zM127 586q0 356 201 605t487 249q252 0 394 -171t143 -438q0 -313 -154 -542t-397 -291l368 -162l-36 -133l-619 283q-201 90 -294 231
t-93 369z" />
    <glyph glyph-name="R" unicode="R" horiz-adv-x="1105" 
d="M895 1055q0 238 -299 237h-152l-86 -549h162q176 0 276 85q99 86 99 227zM598 1413q204 0 320 -88t116 -257t-103 -282t-282 -145l346 -625l-141 -30l-356 639h-160l-98 -625h-140l226 1413h272z" />
    <glyph glyph-name="S" unicode="S" horiz-adv-x="1003" 
d="M356 1078q0 -91 52 -150t202 -147q150 -87 216 -177t67 -213q0 -186 -130 -298q-130 -111 -337 -111t-375 112l33 135q176 -129 365 -129q131 0 217 76t86 182t-46 164q-46 59 -198 150q-152 92 -220 174t-69 203q0 167 117 275q116 108 300 108t329 -89l-33 -135
q-152 104 -292 104t-212 -71q-72 -72 -72 -163z" />
    <glyph glyph-name="T" unicode="T" horiz-adv-x="1107" 
d="M1188 1292h-434l-203 -1292h-139l204 1292h-428l21 121h979v-121z" />
    <glyph glyph-name="U" unicode="U" horiz-adv-x="1347" 
d="M164 430q0 78 12 154l131 829h137l-133 -848q-10 -68 -10 -125q0 -162 88 -251t257 -89q170 0 274 106t135 308l143 899h137l-145 -924q-39 -247 -185 -379q-145 -132 -367 -132t-348 117q-126 118 -126 335z" />
    <glyph glyph-name="V" unicode="V" horiz-adv-x="1298" 
d="M1374 1413l-751 -1421h-111l-299 1405l137 30l248 -1237l629 1223h147z" />
    <glyph glyph-name="W" unicode="W" horiz-adv-x="2013" 
d="M2075 1413l-641 -1413h-111l-203 1208l-585 -1208h-111l-188 1397l143 30l143 -1196l563 1182h138l188 -1182l516 1182h148z" />
    <glyph glyph-name="X" unicode="X" horiz-adv-x="1222" 
d="M1255 1413l-530 -674l348 -721l-141 -30l-299 641l-486 -629h-157l588 741l-318 654l139 28l267 -573l432 563h157z" />
    <glyph glyph-name="Y" unicode="Y" horiz-adv-x="1206" 
d="M1298 1413l-610 -825l-92 -588h-137l92 586l-344 813l141 28l291 -716l504 702h155z" />
    <glyph glyph-name="Z" unicode="Z" horiz-adv-x="1171" 
d="M995 119v-119h-958l14 96l961 1198h-715v119h903l-14 -96l-959 -1198h768z" />
    <glyph glyph-name="bracketleft" unicode="[" horiz-adv-x="792" 
d="M588 -111v-104h-504l256 1628h498l-17 -104h-370l-224 -1420h361z" />
    <glyph glyph-name="backslash" unicode="\" horiz-adv-x="1048" 
d="M1126 -229l-120 -27l-969 1657l123 24z" />
    <glyph glyph-name="bracketright" unicode="]" horiz-adv-x="792" 
d="M240 1309v104h503l-256 -1628h-497l16 104h369l225 1420h-360z" />
    <glyph glyph-name="asciicircum" unicode="^" 
d="M836 1135l-70 -15l-168 174l-217 -168h-90l262 297h125z" />
    <glyph glyph-name="underscore" unicode="_" horiz-adv-x="944" 
d="M854 -106l-16 -109h-953l19 109h950z" />
    <glyph glyph-name="grave" unicode="`" 
d="M737 1126h-90l-237 275l176 39z" />
    <glyph glyph-name="a" unicode="a" horiz-adv-x="991" 
d="M213 317q0 -109 37 -165t101 -58q64 0 138 56t195 184l82 508q-66 29 -154 28q-160 0 -280 -156t-119 -397zM332 -20q-117 0 -185 85t-67 240q0 291 162 485t387 193q131 0 280 -61l-104 -641l-6 -281h-115l-4 199q-104 -109 -186 -164t-162 -55z" />
    <glyph glyph-name="b" unicode="b" horiz-adv-x="999" 
d="M403 98q160 0 272 142t111 378q0 121 -44 189q-44 67 -117 67t-143 -49t-169 -159l-84 -531q82 -37 174 -37zM635 989q135 0 210 -93t75 -263q0 -285 -155 -465t-380 -180q-135 -1 -299 67l221 1391l133 24l-104 -655q164 174 299 174z" />
    <glyph glyph-name="c" unicode="c" horiz-adv-x="847" 
d="M545 874q-127 0 -229 -144t-101 -335q0 -143 69 -222q68 -79 182 -79t247 92v-123q-123 -84 -258 -83q-168 0 -270 108q-101 109 -101 299q0 246 138 424t341 178q145 0 262 -82l-34 -129q-119 96 -246 96z" />
    <glyph glyph-name="d" unicode="d" horiz-adv-x="999" 
d="M213 350q0 -120 44 -188q43 -68 115 -68t143 50t171 159l86 531q-88 37 -174 36q-160 0 -272 -141t-113 -379zM80 338q0 283 153 464q154 181 377 181q78 0 181 -33l75 496l135 24l-188 -1198l-6 -272h-117l-4 178q-178 -199 -328 -198q-126 0 -202 94t-76 264z" />
    <glyph glyph-name="e" unicode="e" horiz-adv-x="915" 
d="M215 391q0 -141 65 -220q66 -79 190 -79t296 123v-125q-158 -110 -325 -110t-263 106t-96 297q0 264 135 435t313 171q148 0 228 -94t80 -266q0 -66 -15 -148h-604q-4 -57 -4 -90zM524 885q-90 0 -170 -83t-116 -220h464q23 303 -178 303z" />
    <glyph glyph-name="f" unicode="f" horiz-adv-x="573" 
d="M594 969v-111h-211l-190 -1210l-136 -23l195 1233h-143l16 111h145l41 258q37 238 283 237q57 0 88 -6v-117q-41 8 -90 9q-131 0 -154 -142l-39 -239h195z" />
    <glyph glyph-name="g" unicode="g" horiz-adv-x="999" 
d="M215 354q0 -115 45 -177t125 -62q119 0 305 209l82 510q-88 37 -174 36q-158 0 -270 -142t-113 -374zM346 -369q-158 0 -323 74l32 117q158 -76 301 -76q242 0 287 279l25 151q-162 -176 -298 -176t-212 91t-76 249q0 281 154 462t378 181q133 0 299 -70l-137 -876
q-63 -406 -430 -406z" />
    <glyph glyph-name="h" unicode="h" horiz-adv-x="999" 
d="M903 778q0 -45 -6 -80l-111 -698h-131l107 676q6 31 6 65q0 129 -121 129t-344 -262l-94 -608h-131l229 1446l133 24l-112 -702q203 221 350 221q109 1 167 -55t58 -156z" />
    <glyph glyph-name="i" unicode="i" horiz-adv-x="458" 
d="M373 969l-156 -969h-131l156 969h131zM455 1298q0 -40 -29 -68t-68 -28q-40 0 -68 28t-28 68t28 70q28 29 68 29t69 -29q28 -29 28 -70z" />
    <glyph glyph-name="j" unicode="j" horiz-adv-x="458" 
d="M-55 -254q102 0 123 123l174 1100h131l-178 -1119q-19 -118 -79 -168t-163 -51q-14 0 -88 9v116q41 -10 80 -10zM455 1298q0 -40 -29 -68t-68 -28q-40 0 -68 28t-28 68t28 70q28 29 68 29t69 -29q28 -29 28 -70z" />
    <glyph glyph-name="k" unicode="k" horiz-adv-x="894" 
d="M911 969l-481 -439l365 -518l-142 -26l-362 528l-82 -514h-131l229 1446l133 24l-143 -917l440 416h174z" />
    <glyph glyph-name="l" unicode="l" horiz-adv-x="458" 
d="M451 1470l-234 -1470h-131l229 1446z" />
    <glyph glyph-name="m" unicode="m" horiz-adv-x="1554" 
d="M758 741q0 129 -113 129q-121 0 -342 -262l-94 -608h-131l110 696l7 273h114l4 -215q215 236 363 235q215 0 215 -211v-8q199 219 348 219q107 0 163 -54t56 -157q0 -41 -6 -80l-111 -698h-131l107 676q8 49 8 65q0 129 -117 129t-338 -262l-96 -608h-131l107 676
q8 49 8 65z" />
    <glyph glyph-name="n" unicode="n" horiz-adv-x="999" 
d="M903 778q0 -45 -6 -80l-111 -698h-131l107 676q6 33 6 65q0 129 -121 129t-344 -262l-94 -608h-131l110 696l7 273h114l4 -215q215 236 365 235q109 1 167 -55t58 -156z" />
    <glyph glyph-name="o" unicode="o" horiz-adv-x="976" 
d="M440 88q138 0 230 148t92 321q0 172 -62 248t-161 76q-139 -1 -231 -149t-93 -320q1 -172 63 -248t162 -76zM895 578q0 -244 -133 -421t-332 -177q-162 0 -254 108t-92 303q0 242 132 420t331 178q162 0 255 -108t93 -303z" />
    <glyph glyph-name="p" unicode="p" horiz-adv-x="999" 
d="M403 98q160 0 272 142t111 378q0 121 -44 189q-44 67 -117 67t-143 -49t-169 -159l-84 -531q86 -37 174 -37zM643 989q127 0 203 -93t76 -263q0 -283 -155 -464t-378 -181q-86 0 -178 30l-59 -368l-134 -25l170 1071l7 273h114l4 -176q90 98 167 147t163 49z" />
    <glyph glyph-name="q" unicode="q" horiz-adv-x="999" 
d="M213 350q0 -120 44 -188q43 -68 115 -68t143 50t171 159l86 531q-88 37 -174 36q-160 0 -272 -141t-113 -379zM366 -20q-136 0 -210 94q-76 94 -76 264q0 283 154 464q155 181 380 181q133 0 299 -70l-200 -1265l-133 -23l84 531q-162 -176 -298 -176z" />
    <glyph glyph-name="r" unicode="r" horiz-adv-x="649" 
d="M672 985v-131q-207 -20 -371 -276l-92 -578h-131l110 696l7 273h114l4 -240q168 256 359 256z" />
    <glyph glyph-name="s" unicode="s" horiz-adv-x="780" 
d="M436 877q-78 0 -126 -42q-48 -43 -48 -99t34 -89t152 -93t174 -120q56 -61 56 -160q0 -141 -93 -218q-93 -76 -258 -76t-311 104l35 123q147 -115 309 -115q80 0 136 46q55 46 55 112t-36 102q-37 36 -153 96t-171 117q-54 57 -54 148q0 125 88 201q87 76 225 76t267 -72
l-33 -127q-127 86 -248 86z" />
    <glyph glyph-name="t" unicode="t" horiz-adv-x="645" 
d="M625 858h-242l-90 -575q-8 -57 -8 -86q0 -100 114 -101q45 0 99 13v-111q-53 -14 -133 -14q-215 0 -215 186q0 43 10 104l92 584h-146l19 111h145l52 336l135 22l-56 -358h224v-111z" />
    <glyph glyph-name="u" unicode="u" horiz-adv-x="999" 
d="M351 98q122 0 345 262l95 609h131l-111 -697l-6 -272h-115l-6 215q-211 -236 -362 -235q-109 0 -167 55t-59 155q0 47 6 80l111 699h131l-106 -676q-8 -41 -9 -66q0 -129 122 -129z" />
    <glyph glyph-name="v" unicode="v" horiz-adv-x="897" 
d="M915 969l-489 -977h-113l-182 964l131 25l135 -813l381 801h137z" />
    <glyph glyph-name="w" unicode="w" horiz-adv-x="1413" 
d="M1427 969l-466 -975h-103l-106 782l-351 -782h-102l-160 967l127 24l113 -795l348 783h113l102 -783l354 779h131z" />
    <glyph glyph-name="x" unicode="x" horiz-adv-x="901" 
d="M893 969l-373 -471l242 -488l-129 -24l-195 411l-301 -397h-147l395 502l-223 456l129 27l174 -383l280 367h148z" />
    <glyph glyph-name="y" unicode="y" horiz-adv-x="915" 
d="M86 -254q102 0 174 133l68 127l-197 950l131 25l154 -817l383 805h137l-555 -1104q-67 -129 -137 -181t-174 -53q-8 0 -58 7v116q45 -8 74 -8z" />
    <glyph glyph-name="z" unicode="z" horiz-adv-x="874" 
d="M713 109v-109h-711l16 102l656 758h-492v109h666l-19 -101l-653 -759h537z" />
    <glyph glyph-name="braceleft" unicode="{" horiz-adv-x="935" 
d="M788 1413h179l-15 -102h-172q-199 0 -202 -207q-2 -47 -4 -195q-2 -147 -68 -217t-193 -94v-4q176 -39 176 -188q0 -60 -43 -206t-43 -196q0 -117 156 -117h158v-102h-187q-250 0 -249 205q0 57 41 201q40 144 40 214q-1 144 -200 144h-51v100h71q127 1 194 63t70 208
l5 188q6 305 337 305z" />
    <glyph glyph-name="bar" unicode="|" horiz-adv-x="544" 
d="M334 -367l-123 -20v1847l123 21v-1848z" />
    <glyph glyph-name="braceright" unicode="}" horiz-adv-x="935" 
d="M485 793q0 59 41 205t41 196q0 117 -155 117h-158v102h186q252 0 252 -205q0 -57 -41 -201t-41 -214q0 -144 199 -144h51v-100h-69q-129 1 -196 -61t-69 -207q-4 -86 -4 -191q-6 -305 -338 -305h-178l17 102h170q197 0 202 207l2 191q2 151 69 221t191 96v4
q-172 35 -172 187z" />
    <glyph glyph-name="asciitilde" unicode="~" horiz-adv-x="825" 
d="M553 463q-59 0 -144 52t-122 52q-47 0 -90 -108l-91 18q70 213 195 213q59 0 146 -53t120 -53q49 0 90 110l91 -20q-68 -211 -195 -211z" />
    <glyph glyph-name="nbspace" unicode="&#xa0;" horiz-adv-x="221" 
 />
    <glyph glyph-name="exclamdown" unicode="&#xa1;" horiz-adv-x="536" 
d="M399 1024l-125 -1024h-163l194 1004zM496 1413l-33 -201h-158l33 201h158z" />
    <glyph glyph-name="cent" unicode="&#xa2;" horiz-adv-x="927" 
d="M608 1077q-156 0 -257 -140t-101 -330t129 -267l233 737h-4zM522 305q135 0 281 92v-112q-143 -88 -293 -88q-35 0 -72 6l-69 -223l-99 22l74 229q-102 43 -162 139t-61 232q0 238 144 411t360 173h20l68 217l98 -21q-68 -211 -68 -213q98 -27 170 -88l-39 -112
q-76 70 -167 94l-60 -189q-59 -188 -119 -376l-59 -189q37 -4 53 -4z" />
    <glyph glyph-name="sterling" unicode="&#xa3;" horiz-adv-x="1071" 
d="M856 1411q119 0 215 -35l-29 -119q-92 35 -177 35t-142 -53t-102 -162l-144 -338h365v-114h-412l-215 -510h719v-115h-875l17 102l221 523h-170l18 114h201l154 363q68 162 152 236t204 73z" />
    <glyph glyph-name="currency" unicode="&#xa4;" horiz-adv-x="1181" 
d="M72 483v105h188q2 123 31 239h-178l18 107h193q76 213 222 345t338 132t326 -119l-30 -127q-150 131 -296 131t-256 -99q-108 -99 -169 -263h467v-107h-502q-29 -109 -33 -239h494l-19 -105h-471q17 -191 105 -293t234 -102t308 113v-125q-158 -102 -340 -102t-302 134
q-120 136 -138 375h-190z" />
    <glyph glyph-name="yen" unicode="&#xa5;" horiz-adv-x="1185" 
d="M997 602v-104h-340l-28 -187h332l-17 -106h-332l-32 -205l-93 205h-311l-16 106h344l28 187h-335l18 104h315l-323 764l131 33l289 -713l497 698h148l-578 -782h303z" />
    <glyph glyph-name="brokenbar" unicode="&#xa6;" horiz-adv-x="1024" 
d="M51 -410v2048h922v-2048h-922z" />
    <glyph glyph-name="section" unicode="&#xa7;" horiz-adv-x="1054" 
d="M135 656q0 98 84 198l111 -31q-70 -86 -70 -164q0 -45 36 -75t132 -60l137 -41q129 -39 191 -92t61 -159q0 -106 -92 -178q-92 -70 -249 -70t-314 71l37 113q150 -78 299 -78q88 0 141 40t53 97t-42 89t-138 61l-129 39q-129 41 -189 92q-60 50 -59 148zM987 726
q0 -98 -86 -196l-108 31q68 84 67 164q0 45 -35 76t-131 59l-137 41q-129 39 -190 92t-61 160t91 177q92 70 247 71q155 0 317 -72l-37 -112q-152 78 -299 77q-91 0 -143 -40t-52 -97t41 -89t137 -60l131 -39q129 -41 189 -92q59 -53 59 -151z" />
    <glyph glyph-name="dieresis" unicode="&#xa8;" 
d="M479 1141h-168l29 180h170zM834 1141h-170l28 180h170z" />
    <glyph glyph-name="copyright" unicode="&#xa9;" horiz-adv-x="1650" 
d="M862 297q-150 0 -252 116t-102 300t103 301t268 116q125 0 241 -73l-18 -111q-112 84 -228 84t-187 -87t-71 -229t72 -230t188 -89q116 0 242 92l15 -104q-121 -86 -271 -86zM1493 707q0 305 -176 489t-460 184t-458 -184t-174 -489t176 -489t460 -185q284 1 458 185
t174 489zM859 1440q316 0 511 -204t195 -528q0 -325 -196 -530t-511 -205t-511 204q-195 204 -195 529q0 326 196 530t511 204z" />
    <glyph glyph-name="ordfeminine" unicode="&#xaa;" horiz-adv-x="751" 
d="M512 1307q-96 0 -223 -60v92q127 53 235 54q238 0 201 -222l-49 -278l-4 -158h-88l-4 99q-132 -111 -222 -111t-139 43t-49 117q0 233 446 264l7 29q20 131 -111 131zM276 889q0 -82 86 -82t218 115l24 151q-328 -27 -328 -184zM637 481h-522l14 97h508v-97z" />
    <glyph glyph-name="guillemotleft" unicode="&#xab;" horiz-adv-x="1052" 
d="M608 969l-375 -494l213 -461l-106 -24l-260 495l407 484h121zM1022 969l-375 -494l213 -461l-106 -24l-258 495l405 484h121z" />
    <glyph glyph-name="logicalnot" unicode="&#xac;" horiz-adv-x="1167" 
d="M1075 635h-932l17 115h932z" />
    <glyph glyph-name="registered" unicode="&#xae;" horiz-adv-x="1159" 
d="M641 991q113 0 113 89t-109 89h-67v-178h63zM580 930v-219h-76v528h143q84 0 133 -41t49 -113q0 -115 -112 -145l157 -217l-79 -18l-160 225h-55zM1065 956q0 193 -116 312q-116 118 -295 118t-294 -118q-114 -118 -114 -310q0 -194 114 -312t295 -118q180 0 295 118
t115 310zM190 957q0 210 130 343q130 134 336 134q204 0 333 -134t129 -343q0 -210 -129 -343t-335 -133t-335 133t-129 343z" />
    <glyph glyph-name="macron" unicode="&#xaf;" 
d="M831 1184h-505l16 125h506z" />
    <glyph glyph-name="degree" unicode="&#xb0;" horiz-adv-x="866" 
d="M743 1070q0 97 -62 163q-61 65 -155 65t-155 -66t-61 -161q0 -96 62 -162q62 -65 156 -65t155 64q60 65 60 162zM852 1070q0 -140 -92 -231t-232 -91t-234 91q-93 91 -93 231t93 232t232 93q139 0 233 -92q93 -93 93 -233z" />
    <glyph glyph-name="plusminus" unicode="&#xb1;" horiz-adv-x="1169" 
d="M1077 330h-229l-53 -330h-123l55 330h-670l15 92l784 975l121 -29l-748 -928h512l62 385l129 29l-68 -414h232z" />
    <glyph glyph-name="twosuperior" unicode="&#xb2;" horiz-adv-x="1024" 
d="M51 -410v2048h922v-2048h-922z" />
    <glyph glyph-name="threesuperior" unicode="&#xb3;" horiz-adv-x="1024" 
d="M51 -410v2048h922v-2048h-922z" />
    <glyph glyph-name="acute" unicode="&#xb4;" 
d="M817 1401l-317 -275h-111l244 314z" />
    <glyph glyph-name="mu" unicode="&#xb5;" horiz-adv-x="1167" 
d="M895 270l-287 346l-397 -346l-72 84l400 342l-291 342l90 78l287 -346l397 346l72 -84l-400 -342l291 -342z" />
    <glyph glyph-name="paragraph" unicode="&#xb6;" horiz-adv-x="1048" 
d="M160 950q0 195 138 315t384 119h330l-219 -1384h-117l203 1284h-170l-47 -295l-121 -375q-177 10 -279 94t-102 242z" />
    <glyph glyph-name="periodcentered" unicode="&#xb7;" horiz-adv-x="438" 
d="M299 479h-160l31 201h160z" />
    <glyph glyph-name="cedilla" unicode="&#xb8;" 
d="M510 -143l-287 -236h-100l217 277z" />
    <glyph glyph-name="onesuperior" unicode="&#xb9;" horiz-adv-x="1024" 
d="M51 -410v2048h922v-2048h-922z" />
    <glyph glyph-name="ordmasculine" unicode="&#xba;" horiz-adv-x="770" 
d="M510 1305q-96 -1 -158 -93t-61 -200q0 -108 41 -153q41 -46 106 -46q96 0 158 91q61 90 61 198t-42 156t-105 47zM659 481h-542l16 97h526v-97zM502 1393q262 1 262 -289q0 -146 -96 -264t-224 -117q-260 0 -260 290q0 144 94 262t224 118z" />
    <glyph glyph-name="guillemotright" unicode="&#xbb;" horiz-adv-x="1052" 
d="M29 0l377 494l-216 462l111 23l256 -496l-405 -483h-123zM444 0l375 494l-215 462l109 23l258 -496l-406 -483h-121z" />
    <glyph glyph-name="onequarter" unicode="&#xbc;" horiz-adv-x="1024" 
d="M51 -410v2048h922v-2048h-922z" />
    <glyph glyph-name="onehalf" unicode="&#xbd;" horiz-adv-x="1024" 
d="M51 -410v2048h922v-2048h-922z" />
    <glyph glyph-name="threequarters" unicode="&#xbe;" horiz-adv-x="1024" 
d="M51 -410v2048h922v-2048h-922z" />
    <glyph glyph-name="questiondown" unicode="&#xbf;" horiz-adv-x="940" 
d="M557 1212l33 201h158l-31 -201h-160zM205 312q0 -108 62 -161q62 -54 169 -55q168 0 371 133v-135q-189 -121 -371 -121t-277 85t-95 238t102 257t334 205l59 246l94 20l-32 -342l-50 -20q-199 -80 -283 -161t-83 -189z" />
    <glyph glyph-name="Agrave" unicode="&#xc0;" horiz-adv-x="1314" 
d="M856 1520h-90l-238 274l177 39zM920 578l-136 665l-346 -665h482zM1176 16l-136 -30l-96 471h-567l-236 -457h-145l754 1421h124z" />
    <glyph glyph-name="Aacute" unicode="&#xc1;" horiz-adv-x="1314" 
d="M1194 1794l-317 -274h-111l244 313zM920 578l-136 665l-346 -665h482zM1176 16l-136 -30l-96 471h-567l-236 -457h-145l754 1421h124z" />
    <glyph glyph-name="Acircumflex" unicode="&#xc2;" horiz-adv-x="1314" 
d="M1087 1507l-69 -14l-168 176l-217 -170h-90l262 297h125zM920 578l-136 665l-346 -665h482zM1176 16l-136 -30l-96 471h-567l-236 -457h-145l754 1421h124z" />
    <glyph glyph-name="Atilde" unicode="&#xc3;" horiz-adv-x="1314" 
d="M967 1532q-53 0 -144 51q-86 53 -123 53q-49 0 -90 -108l-90 18q68 213 195 213q57 0 143 -52t123 -52q49 0 90 108l90 -18q-68 -213 -194 -213zM920 578l-136 665l-346 -665h482zM1176 16l-136 -30l-96 471h-567l-236 -457h-145l754 1421h124z" />
    <glyph glyph-name="Adieresis" unicode="&#xc4;" horiz-adv-x="1314" 
d="M731 1534h-168l29 180h170zM1085 1534h-170l29 180h170zM920 578l-136 665l-346 -665h482zM1176 16l-136 -30l-96 471h-567l-236 -457h-145l754 1421h124z" />
    <glyph glyph-name="Aring" unicode="&#xc5;" horiz-adv-x="1314" 
d="M965 1713q0 52 -34 88t-84 36t-84 -36t-34 -88t34 -87t84 -35t84 35t34 87zM1047 1712q-1 -86 -57 -141t-143 -55t-144 55q-56 55 -56 141q-1 86 57 144t144 59q86 -1 142 -59t57 -144zM920 578l-136 665l-346 -665h482zM1176 16l-136 -30l-96 471h-567l-236 -457h-145
l754 1421h124z" />
    <glyph glyph-name="AE" unicode="&#xc6;" horiz-adv-x="1746" 
d="M1069 1313l-543 -733h428zM1556 801v-123h-450l-88 -557h571l-18 -121h-711l74 457h-500l-340 -457h-149l1052 1413h779l-21 -121h-553l-76 -491h430z" />
    <glyph glyph-name="Ccedilla" unicode="&#xc7;" horiz-adv-x="1187" 
d="M702 -143l-286 -236h-101l217 277zM268 584q0 -228 108 -356t293 -128t357 123v-139q-172 -109 -390 -109t-364 160q-145 160 -145 440q0 347 200 605t496 258q224 0 369 -125l-35 -144q-154 143 -340 144q-237 0 -393 -216t-156 -513z" />
    <glyph glyph-name="Egrave" unicode="&#xc8;" horiz-adv-x="966" 
d="M770 1518h-90l-238 274l176 39zM797 801v-123h-451l-88 -557h571l-18 -121h-711l226 1413h690l-21 -121h-551l-77 -491h430z" />
    <glyph glyph-name="Eacute" unicode="&#xc9;" horiz-adv-x="966" 
d="M991 1792l-317 -274h-111l244 313zM797 801v-123h-451l-88 -557h571l-18 -121h-711l226 1413h690l-21 -121h-551l-77 -491h430z" />
    <glyph glyph-name="Ecircumflex" unicode="&#xca;" horiz-adv-x="966" 
d="M946 1526l-69 -15l-168 177l-217 -170h-91l263 297h124zM797 801v-123h-451l-88 -557h571l-18 -121h-711l226 1413h690l-21 -121h-551l-77 -491h430z" />
    <glyph glyph-name="Edieresis" unicode="&#xcb;" horiz-adv-x="966" 
d="M590 1532h-168l29 180h170zM944 1532h-170l29 180h170zM797 801v-123h-451l-88 -557h571l-18 -121h-711l226 1413h690l-21 -121h-551l-77 -491h430z" />
    <glyph glyph-name="Igrave" unicode="&#xcc;" horiz-adv-x="522" 
d="M463 1518h-90l-238 274l176 39zM477 1413l-225 -1413h-137l225 1413h137z" />
    <glyph glyph-name="Iacute" unicode="&#xcd;" horiz-adv-x="522" 
d="M788 1792l-317 -274h-111l244 313zM477 1413l-225 -1413h-137l225 1413h137z" />
    <glyph glyph-name="Icircumflex" unicode="&#xce;" horiz-adv-x="522" 
d="M686 1507l-70 -14l-167 176l-218 -170h-90l262 297h125zM477 1413l-225 -1413h-137l225 1413h137z" />
    <glyph glyph-name="Idieresis" unicode="&#xcf;" horiz-adv-x="522" 
d="M330 1532h-168l28 180h170zM684 1532h-170l29 180h170zM477 1413l-225 -1413h-137l225 1413h137z" />
    <glyph glyph-name="Eth" unicode="&#xd0;" horiz-adv-x="1370" 
d="M1163 823q0 223 -119 346t-350 123h-198l-78 -489h350l-18 -125h-353l-90 -557h213q270 0 445 174q198 194 198 528zM1309 831q-1 -375 -229 -603t-574 -228h-354l108 678h-160v125h179l98 610h332q287 0 443 -155t157 -427z" />
    <glyph glyph-name="Ntilde" unicode="&#xd1;" horiz-adv-x="1347" 
d="M991 1511q-53 1 -141 53t-125 52q-49 0 -90 -109l-90 19q68 213 194 213q57 0 143 -52t124 -53q49 0 90 109l90 -19q-68 -213 -195 -213zM1317 1413l-225 -1413h-84l-590 1200l-189 -1200h-129l226 1413h131l555 -1132l178 1132h127z" />
    <glyph glyph-name="Ograve" unicode="&#xd2;" horiz-adv-x="1413" 
d="M938 1538h-90l-238 274l176 39zM1208 823q0 225 -107 361q-108 135 -292 135q-227 0 -383 -211t-156 -518q0 -224 108 -360t290 -136q227 0 384 210q156 210 156 519zM1352 827q0 -356 -201 -605t-489 -249q-250 0 -393 171q-142 171 -142 442q0 356 201 605t487 249
q253 0 395 -172t142 -441z" />
    <glyph glyph-name="Oacute" unicode="&#xd3;" horiz-adv-x="1413" 
d="M1204 1812l-317 -274h-111l244 313zM1208 823q0 225 -107 361q-108 135 -292 135q-227 0 -383 -211t-156 -518q0 -224 108 -360t290 -136q227 0 384 210q156 210 156 519zM1352 827q0 -356 -201 -605t-489 -249q-250 0 -393 171q-142 171 -142 442q0 356 201 605t487 249
q253 0 395 -172t142 -441z" />
    <glyph glyph-name="Ocircumflex" unicode="&#xd4;" horiz-adv-x="1413" 
d="M1130 1536l-69 -14l-168 176l-217 -170h-90l262 297h125zM1208 823q0 225 -107 361q-108 135 -292 135q-227 0 -383 -211t-156 -518q0 -224 108 -360t290 -136q227 0 384 210q156 210 156 519zM1352 827q0 -356 -201 -605t-489 -249q-250 0 -393 171q-142 171 -142 442
q0 356 201 605t487 249q253 0 395 -172t142 -441z" />
    <glyph glyph-name="Otilde" unicode="&#xd5;" horiz-adv-x="1413" 
d="M1010 1559q-53 0 -144 51q-86 53 -123 53q-49 0 -90 -109l-90 19q68 213 195 213q57 0 143 -52t123 -53q49 0 90 109l90 -18q-68 -213 -194 -213zM1208 823q0 225 -107 361q-108 135 -292 135q-227 0 -383 -211t-156 -518q0 -224 108 -360t290 -136q227 0 384 210
q156 210 156 519zM1352 827q0 -356 -201 -605t-489 -249q-250 0 -393 171q-142 171 -142 442q0 356 201 605t487 249q253 0 395 -172t142 -441z" />
    <glyph glyph-name="Odieresis" unicode="&#xd6;" horiz-adv-x="1413" 
d="M774 1552h-168l29 181h170zM1128 1552h-170l29 181h170zM1208 823q0 225 -107 361q-108 135 -292 135q-227 0 -383 -211t-156 -518q0 -224 108 -360t290 -136q227 0 384 210q156 210 156 519zM1352 827q0 -356 -201 -605t-489 -249q-250 0 -393 171q-142 171 -142 442
q0 356 201 605t487 249q253 0 395 -172t142 -441z" />
    <glyph glyph-name="multiply" unicode="&#xd7;" horiz-adv-x="1024" 
d="M51 -410v2048h922v-2048h-922z" />
    <glyph glyph-name="Oslash" unicode="&#xd8;" horiz-adv-x="1413" 
d="M127 586q0 356 200 605t484 249q233 0 379 -150l123 140l123 -27l-181 -199q96 -156 97 -377q0 -356 -200 -605t-484 -249q-233 0 -377 148l-123 -137l-123 26l178 197q-96 156 -96 379zM805 1321q-223 0 -380 -212t-157 -523q1 -156 54 -273q117 137 292 332
q174 195 240 269t123 138q57 65 90 99l33 37q-109 133 -295 133zM672 92q225 0 382 212t156 523q0 154 -51 269l-778 -875q111 -129 291 -129z" />
    <glyph glyph-name="Ugrave" unicode="&#xd9;" horiz-adv-x="1347" 
d="M899 1491h-90l-238 274l177 39zM164 430q0 78 12 154l131 829h137l-133 -848q-10 -68 -10 -125q0 -162 88 -251t257 -89q170 0 274 106t135 308l143 899h137l-145 -924q-39 -247 -185 -379q-145 -132 -367 -132t-348 117q-126 118 -126 335z" />
    <glyph glyph-name="Uacute" unicode="&#xda;" horiz-adv-x="1347" 
d="M1128 1765l-317 -274h-111l244 313zM164 430q0 78 12 154l131 829h137l-133 -848q-10 -68 -10 -125q0 -162 88 -251t257 -89q170 0 274 106t135 308l143 899h137l-145 -924q-39 -247 -185 -379q-145 -132 -367 -132t-348 117q-126 118 -126 335z" />
    <glyph glyph-name="Ucircumflex" unicode="&#xdb;" horiz-adv-x="1347" 
d="M1083 1507l-69 -14l-168 176l-217 -170h-90l262 297h125zM164 430q0 78 12 154l131 829h137l-133 -848q-10 -68 -10 -125q0 -162 88 -251t257 -89q170 0 274 106t135 308l143 899h137l-145 -924q-39 -247 -185 -379q-145 -132 -367 -132t-348 117q-126 118 -126 335z" />
    <glyph glyph-name="Udieresis" unicode="&#xdc;" horiz-adv-x="1347" 
d="M743 1513h-168l29 181h170zM1098 1513h-170l28 181h170zM164 430q0 78 12 154l131 829h137l-133 -848q-10 -68 -10 -125q0 -162 88 -251t257 -89q170 0 274 106t135 308l143 899h137l-145 -924q-39 -247 -185 -379q-145 -132 -367 -132t-348 117q-126 118 -126 335z" />
    <glyph glyph-name="Yacute" unicode="&#xdd;" horiz-adv-x="1206" 
d="M1096 1755l-318 -274h-110l243 313zM1298 1413l-610 -825l-92 -588h-137l92 586l-344 813l141 28l291 -716l504 702h155z" />
    <glyph glyph-name="Thorn" unicode="&#xde;" horiz-adv-x="1038" 
d="M850 752q0 260 -307 260h-144l-92 -574h164q182 0 281 88q98 89 98 226zM547 1130q440 0 440 -376q0 -190 -146 -315q-146 -124 -395 -124h-157l-49 -315h-140l226 1413h137l-43 -283h127z" />
    <glyph glyph-name="germandbls" unicode="&#xdf;" horiz-adv-x="1163" 
d="M815 1160q0 190 -175 190q-85 0 -144 -69t-78 -191l-225 -1442l-136 -23l195 1233h-143l16 111h145l21 137q27 168 124 263t239 95t220 -74q76 -74 76 -205q0 -130 -64 -241t-200 -248q383 -106 383 -370q0 -160 -103 -252t-256 -92t-294 75l33 115q137 -80 251 -80
t176 60t62 166q0 104 -91 177t-290 123v95q137 145 197 249q60 102 61 198z" />
    <glyph glyph-name="agrave" unicode="&#xe0;" horiz-adv-x="991" 
d="M676 1126h-90l-238 275l176 39zM213 317q0 -109 37 -165t101 -58q64 0 138 56t195 184l82 508q-66 29 -154 28q-160 0 -280 -156t-119 -397zM332 -20q-117 0 -185 85t-67 240q0 291 162 485t387 193q131 0 280 -61l-104 -641l-6 -281h-115l-4 199q-104 -109 -186 -164
t-162 -55z" />
    <glyph glyph-name="aacute" unicode="&#xe1;" horiz-adv-x="991" 
d="M950 1401l-317 -275h-111l244 314zM213 317q0 -109 37 -165t101 -58q64 0 138 56t195 184l82 508q-66 29 -154 28q-160 0 -280 -156t-119 -397zM332 -20q-117 0 -185 85t-67 240q0 291 162 485t387 193q131 0 280 -61l-104 -641l-6 -281h-115l-4 199q-104 -109 -186 -164
t-162 -55z" />
    <glyph glyph-name="acircumflex" unicode="&#xe2;" horiz-adv-x="991" 
d="M877 1135l-70 -15l-168 176l-217 -170h-90l262 297h125zM213 317q0 -109 37 -165t101 -58q64 0 138 56t195 184l82 508q-66 29 -154 28q-160 0 -280 -156t-119 -397zM332 -20q-117 0 -185 85t-67 240q0 291 162 485t387 193q131 0 280 -61l-104 -641l-6 -281h-115l-4 199
q-104 -109 -186 -164t-162 -55z" />
    <glyph glyph-name="atilde" unicode="&#xe3;" horiz-adv-x="991" 
d="M756 1139q-53 0 -144 51q-86 53 -123 53q-49 0 -90 -108l-90 18q68 213 195 213q57 0 143 -52t123 -52q49 0 90 108l90 -18q-68 -213 -194 -213zM213 317q0 -109 37 -165t101 -58q64 0 138 56t195 184l82 508q-66 29 -154 28q-160 0 -280 -156t-119 -397zM332 -20
q-117 0 -185 85t-67 240q0 291 162 485t387 193q131 0 280 -61l-104 -641l-6 -281h-115l-4 199q-104 -109 -186 -164t-162 -55z" />
    <glyph glyph-name="adieresis" unicode="&#xe4;" horiz-adv-x="991" 
d="M520 1141h-168l29 180h170zM874 1141h-169l28 180h170zM213 317q0 -109 37 -165t101 -58q64 0 138 56t195 184l82 508q-66 29 -154 28q-160 0 -280 -156t-119 -397zM332 -20q-117 0 -185 85t-67 240q0 291 162 485t387 193q131 0 280 -61l-104 -641l-6 -281h-115l-4 199
q-104 -109 -186 -164t-162 -55z" />
    <glyph glyph-name="aring" unicode="&#xe5;" horiz-adv-x="991" 
d="M754 1320q0 52 -34 88t-84 36t-84 -36t-34 -88t34 -87t84 -35t84 35t34 87zM836 1319q0 -86 -56 -141q-56 -56 -144 -56q-87 0 -143 56t-57 141q0 86 58 144q58 59 143 59q87 0 143 -58t56 -145zM213 317q0 -109 37 -165t101 -58q64 0 138 56t195 184l82 508
q-66 29 -154 28q-160 0 -280 -156t-119 -397zM332 -20q-117 0 -185 85t-67 240q0 291 162 485t387 193q131 0 280 -61l-104 -641l-6 -281h-115l-4 199q-104 -109 -186 -164t-162 -55z" />
    <glyph glyph-name="ae" unicode="&#xe6;" horiz-adv-x="1480" 
d="M537 989q225 0 266 -158q125 158 283 158t237 -94q80 -94 80 -266q0 -66 -14 -148h-605q-4 -53 -4 -86q0 -145 64 -224t189 -79q126 0 298 123v-125q-158 -111 -325 -110q-225 0 -314 184q-211 -182 -389 -182q-115 0 -187 63t-71 180q0 340 631 387l8 54q16 110 -24 160
t-152 50t-287 -85v120q174 78 316 78zM178 236q0 -70 40 -107t112 -37q131 0 329 170q-12 54 -12 120t10 134q-479 -43 -479 -280zM1090 885q-90 0 -170 -83t-117 -220h465q23 303 -178 303z" />
    <glyph glyph-name="ccedilla" unicode="&#xe7;" horiz-adv-x="847" 
d="M516 -143l-287 -236h-100l217 277zM545 874q-127 0 -229 -144t-101 -335q0 -143 69 -222q68 -79 182 -79t247 92v-123q-123 -84 -258 -83q-168 0 -270 108q-101 109 -101 299q0 246 138 424t341 178q145 0 262 -82l-34 -129q-119 96 -246 96z" />
    <glyph glyph-name="egrave" unicode="&#xe8;" horiz-adv-x="915" 
d="M215 391q0 -141 65 -220q66 -79 190 -79t296 123v-125q-158 -110 -325 -110t-263 106t-96 297q0 264 135 435t313 171q148 0 228 -94t80 -266q0 -66 -15 -148h-604q-4 -57 -4 -90zM524 885q-90 0 -170 -83t-116 -220h464q23 303 -178 303zM629 1126h-90l-238 275l176 39z
" />
    <glyph glyph-name="eacute" unicode="&#xe9;" horiz-adv-x="915" 
d="M215 391q0 -141 65 -220q66 -79 190 -79t296 123v-125q-158 -110 -325 -110t-263 106t-96 297q0 264 135 435t313 171q148 0 228 -94t80 -266q0 -66 -15 -148h-604q-4 -57 -4 -90zM524 885q-90 0 -170 -83t-116 -220h464q23 303 -178 303zM909 1401l-317 -275h-111
l244 314z" />
    <glyph glyph-name="ecircumflex" unicode="&#xea;" horiz-adv-x="915" 
d="M215 391q0 -141 65 -220q66 -79 190 -79t296 123v-125q-158 -110 -325 -110t-263 106t-96 297q0 264 135 435t313 171q148 0 228 -94t80 -266q0 -66 -15 -148h-604q-4 -57 -4 -90zM524 885q-90 0 -170 -83t-116 -220h464q23 303 -178 303zM840 1135l-70 -15l-168 176
l-217 -170h-90l262 297h125z" />
    <glyph glyph-name="edieresis" unicode="&#xeb;" horiz-adv-x="915" 
d="M215 391q0 -141 65 -220q66 -79 190 -79t296 123v-125q-158 -110 -325 -110t-263 106t-96 297q0 264 135 435t313 171q148 0 228 -94t80 -266q0 -66 -15 -148h-604q-4 -57 -4 -90zM524 885q-90 0 -170 -83t-116 -220h464q23 303 -178 303zM483 1141h-168l29 180h170z
M838 1141h-170l28 180h170z" />
    <glyph glyph-name="igrave" unicode="&#xec;" horiz-adv-x="458" 
d="M373 969l-156 -969h-131l156 969h131zM369 1126h-82l-201 275l154 39z" />
    <glyph glyph-name="iacute" unicode="&#xed;" horiz-adv-x="458" 
d="M373 969l-156 -969h-131l156 969h131zM653 1401l-272 -275h-98l211 314z" />
    <glyph glyph-name="icircumflex" unicode="&#xee;" horiz-adv-x="458" 
d="M373 969l-156 -969h-131l156 969h131zM571 1135l-61 -15l-150 174l-196 -168h-82l242 297h110z" />
    <glyph glyph-name="idieresis" unicode="&#xef;" horiz-adv-x="458" 
d="M373 969l-156 -969h-131l156 969h131zM256 1141h-156l29 180h156zM571 1141h-157l30 180h156z" />
    <glyph glyph-name="eth" unicode="&#xf0;" horiz-adv-x="1009" 
d="M930 791q0 -215 -64 -397t-179 -299q-116 -115 -265 -115t-244 102q-94 102 -94 307t125 366t294 161t300 -146v25q0 240 -111 381l-100 -129h-115l150 196q-80 66 -207 113l24 117q150 -53 252 -138l103 135l102 -24l-135 -174q164 -180 164 -481zM508 807
q-123 0 -207 -130q-84 -129 -84 -287t57 -231t156 -73q130 0 232 156t131 393q-68 88 -134 130t-151 42z" />
    <glyph glyph-name="ntilde" unicode="&#xf1;" horiz-adv-x="999" 
d="M748 1139q-53 0 -144 51q-86 53 -123 53q-49 0 -90 -108l-90 18q68 213 195 213q57 0 143 -52t123 -52q49 0 90 108l90 -18q-68 -213 -194 -213zM903 778q0 -45 -6 -80l-111 -698h-131l107 676q6 33 6 65q0 129 -121 129t-344 -262l-94 -608h-131l110 696l7 273h114
l4 -215q215 236 365 235q109 1 167 -55t58 -156z" />
    <glyph glyph-name="ograve" unicode="&#xf2;" horiz-adv-x="976" 
d="M641 1126h-90l-238 275l176 39zM440 88q138 0 230 148t92 321q0 172 -62 248t-161 76q-139 -1 -231 -149t-93 -320q1 -172 63 -248t162 -76zM895 578q0 -244 -133 -421t-332 -177q-162 0 -254 108t-92 303q0 242 132 420t331 178q162 0 255 -108t93 -303z" />
    <glyph glyph-name="oacute" unicode="&#xf3;" horiz-adv-x="976" 
d="M440 88q138 0 230 148t92 321q0 172 -62 248t-161 76q-139 -1 -231 -149t-93 -320q1 -172 63 -248t162 -76zM895 578q0 -244 -133 -421t-332 -177q-162 0 -254 108t-92 303q0 242 132 420t331 178q162 0 255 -108t93 -303zM954 1401l-317 -275h-111l244 314z" />
    <glyph glyph-name="ocircumflex" unicode="&#xf4;" horiz-adv-x="976" 
d="M856 1135l-70 -15l-168 176l-217 -170h-90l262 297h125zM440 88q138 0 230 148t92 321q0 172 -62 248t-161 76q-139 -1 -231 -149t-93 -320q1 -172 63 -248t162 -76zM895 578q0 -244 -133 -421t-332 -177q-162 0 -254 108t-92 303q0 242 132 420t331 178q162 0 255 -108
t93 -303z" />
    <glyph glyph-name="otilde" unicode="&#xf5;" horiz-adv-x="976" 
d="M737 1139q-53 0 -143 51q-86 53 -123 53q-49 0 -90 -108l-90 18q68 213 194 213q57 0 143 -52t124 -52q49 0 90 108l90 -18q-68 -213 -195 -213zM440 88q138 0 230 148t92 321q0 172 -62 248t-161 76q-139 -1 -231 -149t-93 -320q1 -172 63 -248t162 -76zM895 578
q0 -244 -133 -421t-332 -177q-162 0 -254 108t-92 303q0 242 132 420t331 178q162 0 255 -108t93 -303z" />
    <glyph glyph-name="odieresis" unicode="&#xf6;" horiz-adv-x="976" 
d="M500 1141h-168l28 180h170zM854 1141h-170l29 180h170zM440 88q138 0 230 148t92 321q0 172 -62 248t-161 76q-139 -1 -231 -149t-93 -320q1 -172 63 -248t162 -76zM895 578q0 -244 -133 -421t-332 -177q-162 0 -254 108t-92 303q0 242 132 420t331 178q162 0 255 -108
t93 -303z" />
    <glyph glyph-name="divide" unicode="&#xf7;" horiz-adv-x="1167" 
d="M623 223h-156l29 185h155zM1075 637h-932l17 111h932zM741 977h-157l28 184h158z" />
    <glyph glyph-name="oslash" unicode="&#xf8;" horiz-adv-x="976" 
d="M84 391q0 242 132 420t331 178q143 0 235 -88l74 84l109 -24l-123 -142q53 -96 53 -241q0 -244 -133 -421t-332 -177q-143 0 -235 88l-72 -82l-109 24l121 140q-51 98 -51 241zM541 883q-141 1 -235 -147t-93 -333q0 -81 16 -147l473 551q-55 76 -161 76zM438 84
q141 0 235 148q93 148 93 337q0 85 -18 146l-472 -555q57 -76 162 -76z" />
    <glyph glyph-name="ugrave" unicode="&#xf9;" horiz-adv-x="999" 
d="M651 1126h-90l-237 275l176 39zM351 98q122 0 345 262l95 609h131l-111 -697l-6 -272h-115l-6 215q-211 -236 -362 -235q-109 0 -167 55t-59 155q0 47 6 80l111 699h131l-106 -676q-8 -41 -9 -66q0 -129 122 -129z" />
    <glyph glyph-name="uacute" unicode="&#xfa;" horiz-adv-x="999" 
d="M938 1401l-317 -275h-111l244 314zM351 98q122 0 345 262l95 609h131l-111 -697l-6 -272h-115l-6 215q-211 -236 -362 -235q-109 0 -167 55t-59 155q0 47 6 80l111 699h131l-106 -676q-8 -41 -9 -66q0 -129 122 -129z" />
    <glyph glyph-name="ucircumflex" unicode="&#xfb;" horiz-adv-x="999" 
d="M866 1135l-69 -15l-168 176l-217 -170h-90l262 297h125zM351 98q122 0 345 262l95 609h131l-111 -697l-6 -272h-115l-6 215q-211 -236 -362 -235q-109 0 -167 55t-59 155q0 47 6 80l111 699h131l-106 -676q-8 -41 -9 -66q0 -129 122 -129z" />
    <glyph glyph-name="udieresis" unicode="&#xfc;" horiz-adv-x="999" 
d="M512 1141h-168l29 180h170zM866 1141h-170l29 180h170zM351 98q122 0 345 262l95 609h131l-111 -697l-6 -272h-115l-6 215q-211 -236 -362 -235q-109 0 -167 55t-59 155q0 47 6 80l111 699h131l-106 -676q-8 -41 -9 -66q0 -129 122 -129z" />
    <glyph glyph-name="yacute" unicode="&#xfd;" horiz-adv-x="915" 
d="M907 1382l-317 -274h-111l244 313zM86 -254q102 0 174 133l68 127l-197 950l131 25l154 -817l383 805h137l-555 -1104q-67 -129 -137 -181t-174 -53q-8 0 -58 7v116q45 -8 74 -8z" />
    <glyph glyph-name="thorn" unicode="&#xfe;" horiz-adv-x="1003" 
d="M791 616q1 121 -45 190q-46 68 -120 68t-144 -50t-169 -160l-84 -529q82 -37 174 -37q160 0 274 140t114 378zM926 633q0 -285 -156 -465t-379 -180q-82 0 -180 28l-59 -368l-134 -23l289 1821l133 24l-104 -655q80 86 152 130t157 44q129 0 205 -93t76 -263z" />
    <glyph glyph-name="ydieresis" unicode="&#xff;" horiz-adv-x="915" 
d="M471 1141h-168l29 180h170zM825 1141h-170l29 180h170zM86 -254q102 0 174 133l68 127l-197 950l131 25l154 -817l383 805h137l-555 -1104q-67 -129 -137 -181t-174 -53q-8 0 -58 7v116q45 -8 74 -8z" />
    <glyph glyph-name="dotlessi" unicode="&#x131;" horiz-adv-x="458" 
d="M373 969l-156 -969h-131l156 969h131z" />
    <glyph glyph-name="Lslash" unicode="&#x141;" horiz-adv-x="962" 
d="M834 0h-684l104 664l-164 -35l-2 121l186 38l99 625h137l-92 -596l338 72l-19 -125l-340 -72l-90 -567h527v-125z" />
    <glyph glyph-name="lslash" unicode="&#x142;" horiz-adv-x="555" 
d="M381 723l-115 -723h-131l111 694l-168 -35l-2 119l188 39l98 629l138 24l-97 -626l181 39l-21 -121z" />
    <glyph glyph-name="OE" unicode="&#x152;" horiz-adv-x="1728" 
d="M920 1292q-287 0 -465 -194t-179 -508q0 -225 119 -347t350 -122h138l186 1171h-149zM1559 801v-123h-451l-88 -557h571l-20 -121h-842q-287 0 -443 155t-155 427q0 369 225 600t578 231h842l-19 -121h-553l-76 -491h431z" />
    <glyph glyph-name="oe" unicode="&#x153;" horiz-adv-x="1581" 
d="M430 -20q-162 0 -254 108t-92 303q0 244 131 421t330 177q238 0 311 -221q64 104 154 162t186 59q150 0 230 -94t79 -266q0 -66 -14 -148h-606q-4 -57 -4 -90q1 -141 65 -220t188 -79t298 123v-125q-156 -111 -324 -110q-248 0 -322 221q-133 -221 -356 -221zM440 88
q138 0 230 150t92 322t-64 246t-159 75q-141 0 -233 -150t-91 -321q0 -170 65 -246t160 -76zM1195 885q-95 0 -175 -82t-117 -221h465q12 143 -33 223t-140 80z" />
    <glyph glyph-name="Scaron" unicode="&#x160;" horiz-adv-x="1003" 
d="M971 1835l-260 -297h-125l-158 287l72 16l168 -178l213 172h90zM356 1078q0 -91 52 -150t202 -147q150 -87 216 -177t67 -213q0 -186 -130 -298q-130 -111 -337 -111t-375 112l33 135q176 -129 365 -129q131 0 217 76t86 182t-46 164q-46 59 -198 150q-152 92 -220 174
t-69 203q0 167 117 275q116 108 300 108t329 -89l-33 -135q-152 104 -292 104t-212 -71q-72 -72 -72 -163z" />
    <glyph glyph-name="scaron" unicode="&#x161;" horiz-adv-x="780" 
d="M805 1423l-260 -297h-125l-158 287l72 17l168 -179l213 172h90zM436 877q-78 0 -126 -42q-48 -43 -48 -99t34 -89t152 -93t174 -120q56 -61 56 -160q0 -141 -93 -218q-93 -76 -258 -76t-311 104l35 123q147 -115 309 -115q80 0 136 46q55 46 55 112t-36 102
q-37 36 -153 96t-171 117q-54 57 -54 148q0 125 88 201q87 76 225 76t267 -72l-33 -127q-127 86 -248 86z" />
    <glyph glyph-name="Ydieresis" unicode="&#x178;" horiz-adv-x="1206" 
d="M668 1513h-168l28 181h170zM1022 1513h-170l29 181h170zM1298 1413l-610 -825l-92 -588h-137l92 586l-344 813l141 28l291 -716l504 702h155z" />
    <glyph glyph-name="Zcaron" unicode="&#x17d;" horiz-adv-x="1171" 
d="M1065 1815l-260 -297h-125l-158 286l72 17l168 -179l213 173h90zM995 119v-119h-958l14 96l961 1198h-715v119h903l-14 -96l-959 -1198h768z" />
    <glyph glyph-name="zcaron" unicode="&#x17e;" horiz-adv-x="874" 
d="M860 1423l-260 -297h-125l-158 287l72 17l168 -179l213 172h90zM713 109v-109h-711l16 102l656 758h-492v109h666l-19 -101l-653 -759h537z" />
    <glyph glyph-name="florin" unicode="&#x192;" horiz-adv-x="737" 
d="M623 1282q-135 0 -160 -154l-33 -200h193v-113h-211l-129 -815h-133l131 815h-144l19 113h143l35 213q39 260 293 260q55 0 84 -6v-119q-41 6 -88 6z" />
    <glyph glyph-name="circumflex" unicode="&#x2c6;" 
d="M836 1135l-70 -15l-168 176l-217 -170h-90l262 297h125z" />
    <glyph glyph-name="caron" unicode="&#x2c7;" 
d="M889 1423l-260 -297h-125l-158 287l72 17l168 -179l213 172h90z" />
    <glyph glyph-name="breve" unicode="&#x2d8;" 
d="M463 1430q4 -173 132 -173q136 0 177 166h102q-20 -141 -98 -218t-198 -77t-181 78q-59 78 -39 203z" />
    <glyph glyph-name="dotaccent" unicode="&#x2d9;" 
d="M657 1135h-174l31 184h172z" />
    <glyph glyph-name="ring" unicode="&#x2da;" 
d="M713 1320q0 52 -34 88t-84 36t-84 -36t-34 -88t34 -87t84 -35t84 35t34 87zM795 1319q-1 -86 -57 -141q-56 -56 -143 -56t-143 56t-57 141q-1 86 57 144q58 59 144 59t142 -58t57 -145z" />
    <glyph glyph-name="ogonek" unicode="&#x2db;" 
d="M532 -379h-86l-213 236l175 41z" />
    <glyph glyph-name="tilde" unicode="&#x2dc;" 
d="M715 1139q-53 0 -144 51q-86 53 -122 53q-49 0 -91 -108l-90 18q68 213 195 213q57 0 143 -52t123 -52q49 0 90 108l90 -18q-68 -213 -194 -213z" />
    <glyph glyph-name="hungarumlaut" unicode="&#x2dd;" 
d="M623 1409l-318 -274h-90l244 311zM956 1409l-315 -274h-92l246 311z" />
    <glyph glyph-name="Delta" unicode="&#x394;" horiz-adv-x="1024" 
d="M51 -410v2048h922v-2048h-922z" />
    <glyph glyph-name="Omega" unicode="&#x3a9;" horiz-adv-x="1146" 
d="M1167 969v-111h-209l-192 -1210l-133 -23l192 1233h-143l16 111h146l41 258q20 125 91 181t193 56q55 0 86 -6v-117q-37 8 -90 9q-131 0 -153 -142l-39 -239h194zM594 969v-111h-211l-190 -1210l-136 -23l195 1233h-143l16 111h145l41 258q37 238 283 237q57 0 88 -6
v-117q-41 8 -90 9q-131 0 -154 -142l-39 -239h195z" />
    <glyph glyph-name="pi" unicode="&#x3c0;" horiz-adv-x="1650" 
d="M1036 870q0 72 -45 109t-125 37h-108v-291h102q176 0 176 145zM870 1112q125 0 200 -64t75 -178q0 -115 -79 -178t-210 -63h-98v-322h-109v805h221zM1493 707q0 305 -176 489t-460 184t-458 -184t-174 -489t176 -489t460 -185q284 1 458 185t174 489zM859 1440
q316 0 511 -204t195 -528q0 -325 -196 -530t-511 -205t-511 204q-195 204 -195 529q0 326 196 530t511 204z" />
    <glyph glyph-name="endash" unicode="&#x2013;" 
d="M817 514h-692l20 131h693z" />
    <glyph glyph-name="emdash" unicode="&#x2014;" horiz-adv-x="1867" 
d="M1751 516h-1626l20 129h1627z" />
    <glyph glyph-name="quoteleft" unicode="&#x2018;" horiz-adv-x="438" 
d="M178 969l232 456l71 -18l-139 -438h-164z" />
    <glyph glyph-name="quoteright" unicode="&#x2019;" horiz-adv-x="438" 
d="M483 1413l-231 -457l-72 19l139 438h164z" />
    <glyph glyph-name="quotesinglbase" unicode="&#x201a;" horiz-adv-x="438" 
d="M281 201l-232 -455l-72 16l140 439h164z" />
    <glyph glyph-name="quotedblleft" unicode="&#x201c;" horiz-adv-x="776" 
d="M516 969l232 456l71 -18l-139 -438h-164zM178 969l232 456l71 -18l-139 -438h-164z" />
    <glyph glyph-name="quotedblright" unicode="&#x201d;" horiz-adv-x="776" 
d="M821 1413l-231 -457l-72 19l139 438h164zM483 1413l-231 -457l-72 19l139 438h164z" />
    <glyph glyph-name="quotedblbase" unicode="&#x201e;" horiz-adv-x="776" 
d="M618 201l-231 -455l-72 16l140 439h163zM281 201l-232 -455l-72 16l140 439h164z" />
    <glyph glyph-name="dagger" unicode="&#x2020;" horiz-adv-x="1019" 
d="M377 -238v236l100 637l68 211h45v-211l-101 -637l-73 -236h-39zM508 885l-244 -37h-102l18 119h103l231 -39zM973 848h-103l-231 37l4 43l246 39h102zM563 969v227l33 217h121l-33 -211l-76 -233h-45z" />
    <glyph glyph-name="daggerdbl" unicode="&#x2021;" horiz-adv-x="1058" 
d="M483 66v-228l-30 -217h-121l33 211l75 234h43zM403 106l-243 -36h-103l19 118h102l234 -38zM868 70h-102l-234 36l9 44l245 38h101zM459 190v205l37 240l67 211h47v-205l-39 -240l-65 -211h-47zM526 885l-243 -37h-103l19 119h102l234 -39zM991 848h-102l-232 37l7 43
l245 39h101zM584 969v229l32 215h119l-33 -211l-73 -233h-45z" />
    <glyph glyph-name="bullet" unicode="&#x2022;" horiz-adv-x="827" 
d="M688 713l-35 -224l-204 -34l-203 34l-35 224l35 223l203 33l204 -33z" />
    <glyph glyph-name="ellipsis" unicode="&#x2026;" horiz-adv-x="1419" 
d="M240 0h-160l33 201h159zM713 0h-160l33 201h159zM1186 0h-160l33 201h160z" />
    <glyph glyph-name="perthousand" unicode="&#x2030;" horiz-adv-x="1650" 
d="M844 1024h-113v-285h103q82 0 128 38t46 106q0 69 -42 105t-122 36zM731 645v-330h-108v807h223q124 0 198 -63t74 -161q0 -182 -174 -236l250 -330l-117 -23l-246 336h-100zM1493 707q0 305 -176 489t-460 184t-458 -184t-174 -489t176 -489t460 -185q284 1 458 185
t174 489zM859 1440q316 0 511 -204t195 -528q0 -325 -196 -530t-511 -205t-511 204q-195 204 -195 529q0 326 196 530t511 204z" />
    <glyph glyph-name="guilsinglleft" unicode="&#x2039;" horiz-adv-x="638" 
d="M608 969l-375 -494l213 -461l-106 -24l-260 495l407 484h121z" />
    <glyph glyph-name="guilsinglright" unicode="&#x203a;" horiz-adv-x="638" 
d="M29 0l377 494l-216 462l111 23l256 -496l-405 -483h-123z" />
    <glyph glyph-name="fraction" unicode="&#x2044;" horiz-adv-x="901" 
d="M1235 1579l-1389 -1800l-120 26l1390 1801z" />
    <glyph glyph-name="trademark" unicode="&#x2122;" horiz-adv-x="1640" 
d="M494 1325v-618h-97v618h-223v88h528l15 -88h-223zM1604 707h-97l-41 542l-219 -544h-78l-217 544l-43 -542h-92l53 706h115l225 -579l226 579h112z" />
    <glyph glyph-name="partialdiff" unicode="&#x2202;" horiz-adv-x="1413" 
d="M648 -27q-236 0 -379 171q-142 171 -142 442q0 356 201 605t487 249q252 0 394 -171t143 -442q0 -356 -201 -602l141 -123l-47 -131l-180 162q-181 -160 -417 -160zM809 1319q-227 0 -383 -211t-156 -518q0 -224 108 -360t282 -136t311 121l-326 277l172 30l238 -213
q154 209 153 514q0 225 -107 361q-108 135 -292 135z" />
    <glyph glyph-name="product" unicode="&#x220f;" horiz-adv-x="1024" 
d="M51 -410v2048h922v-2048h-922z" />
    <glyph glyph-name="summation" unicode="&#x2211;" horiz-adv-x="1990" 
d="M1051 836l-439 -844h-110l-289 1405l141 30l236 -1232l424 823l-82 379l139 30l246 -1232l602 1218h149l-727 -1421h-110z" />
    <glyph glyph-name="minus" unicode="&#x2212;" horiz-adv-x="1024" 
d="M51 -410v2048h922v-2048h-922z" />
    <glyph glyph-name="radical" unicode="&#x221a;" horiz-adv-x="1605" 
d="M1597 1470l-233 -1470h-131l229 1446zM1167 969v-111h-209l-192 -1210l-133 -23l192 1233h-143l16 111h146l41 258q20 125 91 181t193 56q55 0 86 -6v-117q-37 8 -90 9q-131 0 -153 -142l-39 -239h194zM594 969v-111h-211l-190 -1210l-136 -23l195 1233h-143l16 111h145
l41 258q37 238 283 237q57 0 88 -6v-117q-41 8 -90 9q-131 0 -154 -142l-39 -239h195z" />
    <glyph glyph-name="infinity" unicode="&#x221e;" horiz-adv-x="929" 
d="M283 -18q-104 0 -171 63t-67 172q0 356 637 395l8 50q16 114 -24 164t-157 50q-118 0 -292 -85v120q174 78 328 78q330 0 274 -330l-69 -428l-7 -231h-114l-4 162q-188 -180 -342 -180zM309 90q125 0 316 182l41 244q-487 -37 -488 -291q0 -61 35 -98t96 -37z" />
    <glyph glyph-name="integral" unicode="&#x222b;" horiz-adv-x="976" 
d="M834 688q0 -152 -114 -256t-269 -104q-63 0 -109 14q-66 -45 -64 -76t38 -49q34 -18 141 -45l80 -20q153 -42 221 -96t67 -142q0 -127 -125 -210q-124 -83 -318 -83t-316 66t-123 176q0 85 58 149t196 131q-53 41 -55 102t112 136q-127 84 -127 239t113 261t261 106
t242 -84l254 80v-131l-198 -21q35 -63 35 -143zM705 679q1 99 -53 153t-156 55q-102 0 -170 -78t-68 -175q0 -96 53 -152t155 -56t170 77t69 176zM74 -121q0 -71 83 -113t225 -42t227 52t85 110t-44 90q-44 30 -158 61l-93 24q-49 13 -102 31q-223 -92 -223 -213z" />
    <glyph glyph-name="approxequal" unicode="&#x2248;" horiz-adv-x="1605" 
d="M1520 969l-156 -969h-131l156 969h131zM1602 1300q0 -38 -29 -66t-68 -28t-67 28t-27 66q0 38 28 68q29 29 67 29t67 -29t29 -68zM1167 969v-111h-209l-192 -1210l-133 -23l192 1233h-143l16 111h146l41 258q20 125 91 181t193 56q55 0 86 -6v-117q-37 8 -90 9
q-131 0 -153 -142l-39 -239h194zM594 969v-111h-211l-190 -1210l-136 -23l195 1233h-143l16 111h145l41 258q37 238 283 237q57 0 88 -6v-117q-41 8 -90 9q-131 0 -154 -142l-39 -239h195z" />
    <glyph glyph-name="notequal" unicode="&#x2260;" horiz-adv-x="1007" 
d="M883 418q0 -201 -134 -323t-339 -122t-394 115l41 123q184 -121 343 -121t253 87t95 231q0 274 -369 274h-41v96l493 490h-591v116h784l-16 -96l-508 -504q180 -18 282 -110t101 -256z" />
    <glyph glyph-name="lessequal" unicode="&#x2264;" horiz-adv-x="1724" 
d="M1468 0h-131l187 1184l-697 -1190h-96l-315 1190l-189 -1184h-125l224 1413h168l319 -1229l711 1229h168z" />
    <glyph glyph-name="greaterequal" unicode="&#x2265;" horiz-adv-x="1335" 
d="M973 0v172q-246 -188 -461 -188q-170 0 -263 83t-93 248q0 63 8 115l155 983h138l-154 -975q-8 -43 -8 -90q0 -244 240 -244q197 0 450 203l176 1106h137l-225 -1413h-100z" />
    <glyph glyph-name="lozenge" unicode="&#x25ca;" horiz-adv-x="1640" 
d="M473 1339q-67 1 -99 -25t-32 -69t29 -71t119 -66q90 -39 134 -86t44 -133q0 -85 -65 -139t-168 -54t-191 49l10 95q98 -60 172 -60t112 29t38 79t-29 80t-121 70t-132 81q-42 42 -42 122t60 131t154 51t169 -41l-17 -92q-78 49 -145 49zM1604 707h-97l-41 542l-219 -544
h-78l-217 544l-43 -542h-92l53 706h115l225 -579l226 579h112z" />
    <glyph glyph-name="apple" unicode="&#xf8ff;" horiz-adv-x="1421" 
d="M598 884q0 -92 68 -90q32 0 51 50h2l24 -49l23 16l-33 61q20 47 27 80l-27 6q-4 -18 -18 -61l-33 64q47 43 47 77q0 72 -55 72q-25 0 -41 -19q-17 -19 -17 -45t29 -79q-47 -37 -47 -83zM872 580q-31 0 -30 34q0 12 9 24t22 11q13 0 23 -11q10 -10 9 -24q1 -14 -9 -24
t-24 -10zM999 612h-24v35h22q20 0 21 -16q-1 -19 -19 -19zM664 823q-35 1 -35 47t30 76l41 -80q-12 -43 -36 -43zM645 1056q0 30 29 29q27 -1 27 -35t-31 -69q-25 45 -25 75zM494 662l30 -97h17l20 70h2l23 -70h16l29 97h-17l-20 -72h-2l-21 72h-16l-23 -72h-2l-20 72h-16z
M270 662v-95h17v66l51 -66h14v95h-16v-66l-51 66h-15zM395 662v-95h68v15h-51v26h45v15h-45v24h51v15h-68zM750 567h16v35l37 60h-19l-26 -46l-27 46h-18l37 -60v-35zM874 565q22 0 34 15q32 34 0 68q-14 16 -36 16q-20 0 -33 -16t-13 -34q0 -20 12 -34q14 -14 36 -15z
M1034 626q0 34 -33 36h-43v-95h17v31h24l21 -31h18l-24 35q20 6 20 24zM1071 662v-95h16v27l15 14l33 -41h18l-39 54l37 41h-21l-43 -50v50h-16zM985 799q63 0 64 73v281h-33v-281q0 -45 -33 -45q-20 0 -41 13v-33q16 -8 43 -8zM377 1153v-352h31v162h96v-162h31v352h-31
v-162h-96v162h-31zM819 1153v-352h31v160h78v28h-78v135h88v29h-119zM1319 -410h-426l-16 29h-334l-17 -29h-424v621q29 0 48 19q18 19 18 46q0 26 -20 46t-46 20v1135h205l62 161h684l59 -161h207v-1887z" />
    <glyph glyph-name="fi" unicode="&#xfb01;" horiz-adv-x="1032" 
d="M944 969l-153 -969h-132l154 969h131zM1028 1300q0 -38 -29 -66t-67 -28t-67 28q-27 28 -27 66t27 68q28 29 67 29q40 0 68 -29t28 -68zM594 969v-111h-211l-190 -1210l-136 -23l195 1233h-143l16 111h145l41 258q37 238 283 237q57 0 88 -6v-117q-41 8 -90 9
q-131 0 -154 -142l-39 -239h195z" />
    <glyph glyph-name="fl" unicode="&#xfb02;" horiz-adv-x="1032" 
d="M1022 1470l-231 -1470h-132l228 1446zM594 969v-111h-211l-190 -1210l-136 -23l195 1233h-143l16 111h145l41 258q37 238 283 237q57 0 88 -6v-117q-41 8 -90 9q-131 0 -154 -142l-39 -239h195z" />
    <glyph glyph-name="NUL" horiz-adv-x="0" 
 />
    </font>
</defs>
</svg>
